<?xml version="1.0" encoding="UTF-8" standalone="no"?>
<svg
   xmlns:dc="http://purl.org/dc/elements/1.1/"
   xmlns:cc="http://creativecommons.org/ns#"
   xmlns:rdf="http://www.w3.org/1999/02/22-rdf-syntax-ns#"
   xmlns:svg="http://www.w3.org/2000/svg"
   xmlns="http://www.w3.org/2000/svg"
   id="svg1002"
   version="1.1"
   viewBox="0 0 77.323461 15.74934"
   height="59.525063"
   width="292.24615">
  <defs
     id="defs996" />
  <metadata
     id="metadata999">
    <rdf:RDF>
      <cc:Work
         rdf:about="">
        <dc:format>image/svg+xml</dc:format>
        <dc:type
           rdf:resource="http://purl.org/dc/dcmitype/StillImage" />
        <dc:title></dc:title>
      </cc:Work>
    </rdf:RDF>
  </metadata>
  <g
     transform="translate(-1.452306,-264.1668)"
     id="layer1">
    <g
       transform="matrix(0.37052585,0,0,0.37052585,25.259498,192.29856)"
       id="g1587">
      <path
         style="opacity:0.13699999;fill:#ffffff;fill-opacity:1;stroke-width:0.08275647"
         d="m -27.562722,200.41156 0.68407,24.39055 a 8.606264,8.606264 0 0 1 -6.375408,8.5543 l -10.180998,2.72799 a 11.25237,11.25237 0 0 1 -8.240376,-0.95796 l -10.840027,-5.8275 a 3.3095965,3.3095965 0 0 1 3.133853,-5.83031 l 6.06505,3.26056 v 0 a 23.440643,23.440643 0 0 0 -2.656406,-6.18233 l -6.498335,-10.60253 a 3.3107347,3.3107347 0 1 1 5.645992,-3.45927 l 5.655837,9.22781 a 0.68945485,0.68945485 0 0 0 1.188377,-0.69894 l -8.211625,-14.56138 a 3.3099603,3.3099603 0 1 1 5.765518,-3.25302 l 9.156758,16.23734 a 0.86236119,0.86236119 0 0 0 1.61199,-0.47488 l -0.922544,-15.4918 a 3.3145619,3.3145619 0 0 1 3.456462,-3.50409 c 1.722535,0.0782 3.059797,1.55111 3.162286,3.27238 l 0.828453,13.91162 a 0.62495364,0.62495364 0 0 0 1.248553,-0.0547 l -0.294434,-10.49854 a 3.3097737,3.3097737 0 1 1 6.616952,-0.18533 z"
         id="path1510" />
      <text
         xml:space="preserve"
         style="font-style:normal;font-variant:normal;font-weight:normal;font-stretch:normal;font-size:9.41458035px;line-height:1.25;font-family:'Futura Lt BT';-inkscape-font-specification:'Futura Lt BT, Normal';font-variant-ligatures:normal;font-variant-caps:normal;font-variant-numeric:normal;font-feature-settings:normal;text-align:start;letter-spacing:2.11666656px;word-spacing:0px;writing-mode:lr-tb;text-anchor:start;fill:#ffffff;fill-opacity:1;stroke:none;stroke-width:0.235358"
         x="-22.96677"
         y="236.20616"
         id="text941"><tspan
           x="-22.96677"
           y="236.20616"
           style="font-style:normal;font-variant:normal;font-weight:normal;font-stretch:normal;font-size:9.41458035px;font-family:'Futura Lt BT';-inkscape-font-specification:'Futura Lt BT, Normal';font-variant-ligatures:normal;font-variant-caps:normal;font-variant-numeric:normal;font-feature-settings:normal;text-align:start;letter-spacing:2.11666656px;writing-mode:lr-tb;text-anchor:start;fill:#ffffff;fill-opacity:1;stroke-width:0.235358"
           id="tspan939">WEB DEVELOPMENT</tspan></text>
      <g
         transform="translate(-164.55391,-39.633061)"
         style="fill:#ffffff;fill-opacity:1"
         id="g1542">
        <text
           transform="translate(38.351535,44.701125)"
           xml:space="preserve"
           style="font-style:normal;font-variant:normal;font-weight:500;font-stretch:normal;font-size:41.0598259px;line-height:1.25;font-family:Futura-Bold;-inkscape-font-specification:'Futura-Bold, Medium';font-variant-ligatures:normal;font-variant-caps:normal;font-variant-numeric:normal;font-feature-settings:normal;text-align:start;letter-spacing:-0.41804168px;word-spacing:0px;writing-mode:lr-tb;text-anchor:start;fill:#ffffff;fill-opacity:1;stroke:none;stroke-width:1.02649581"
           x="100.72271"
           y="220.88037"
           id="text952"><tspan
             id="tspan950"
             x="100.72271"
             y="220.88037"
             style="font-style:normal;font-variant:normal;font-weight:500;font-stretch:normal;font-size:41.0598259px;font-family:Futura-Bold;-inkscape-font-specification:'Futura-Bold, Medium';font-variant-ligatures:normal;font-variant-caps:normal;font-variant-numeric:normal;font-feature-settings:normal;text-align:start;letter-spacing:-0.44979167px;writing-mode:lr-tb;text-anchor:start;fill:#ffffff;stroke-width:1.02649581">PROSPR</tspan></text>
        <path
           id="path1300"
           d="m 210.84117,253.57392 -0.85631,-0.24847 c -0.0898,-0.0252 -0.14037,-0.11932 -0.11511,-0.20916 l 1.91616,-6.60055 c 0.0252,-0.0898 0.11932,-0.14037 0.20916,-0.11511 l 0.8563,0.24847 c 0.0898,0.0252 0.14038,0.11933 0.11512,0.20917 l -1.91616,6.60054 c -0.0267,0.0899 -0.11932,0.14178 -0.20916,0.11511 z m -1.60031,-1.57503 0.61065,-0.65136 c 0.0646,-0.0688 0.0603,-0.17828 -0.0113,-0.24145 l -1.27182,-1.1188 1.27182,-1.11881 c 0.0716,-0.0632 0.0772,-0.17267 0.0113,-0.24145 l -0.61065,-0.65135 c -0.0632,-0.0674 -0.16985,-0.0716 -0.23863,-0.007 l -2.02285,1.8951 c -0.0716,0.066 -0.0716,0.17968 0,0.24566 l 2.02285,1.8965 c 0.0688,0.0645 0.17547,0.0618 0.23863,-0.007 z m 4.59316,0.008 2.02283,-1.89651 c 0.0716,-0.066 0.0716,-0.17968 0,-0.24566 l -2.02283,-1.8979 c -0.0674,-0.0632 -0.17408,-0.0604 -0.23865,0.007 l -0.61064,0.65135 c -0.0646,0.0688 -0.0604,0.17828 0.0112,0.24145 l 1.27181,1.12021 -1.27181,1.1188 c -0.0716,0.0632 -0.0772,0.17267 -0.0112,0.24145 l 0.61064,0.65136 c 0.0632,0.0688 0.16986,0.0716 0.23865,0.008 z"
           style="fill:#ffffff;stroke-width:0.01403774" />
      </g>
    </g>
  </g>
</svg>
